<?xml version="1.0" encoding="UTF-8" standalone="no"?>
<svg
   xmlns:dc="http://purl.org/dc/elements/1.1/"
   xmlns:cc="http://creativecommons.org/ns#"
   xmlns:rdf="http://www.w3.org/1999/02/22-rdf-syntax-ns#"
   xmlns:svg="http://www.w3.org/2000/svg"
   xmlns="http://www.w3.org/2000/svg"
   xmlns:sodipodi="http://sodipodi.sourceforge.net/DTD/sodipodi-0.dtd"
   xmlns:inkscape="http://www.inkscape.org/namespaces/inkscape"
   height="512px"
   id="Layer_1"
   style="enable-background:new 0 0 67 67;"
   version="1.1"
   viewBox="0 0 67 67"
   width="512px"
   xml:space="preserve"
   inkscape:version="0.91 r13725"
   sodipodi:docname="linkedin_icon.svg"><metadata
     id="metadata9"><rdf:RDF><cc:Work
         rdf:about=""><dc:format>image/svg+xml</dc:format><dc:type
           rdf:resource="http://purl.org/dc/dcmitype/StillImage" /></cc:Work></rdf:RDF></metadata><defs
     id="defs7" /><sodipodi:namedview
     pagecolor="#ffffff"
     bordercolor="#666666"
     borderopacity="1"
     objecttolerance="10"
     gridtolerance="10"
     guidetolerance="10"
     inkscape:pageopacity="0"
     inkscape:pageshadow="2"
     inkscape:window-width="1432"
     inkscape:window-height="735"
     id="namedview5"
     showgrid="false"
     inkscape:zoom="3.5223881"
     inkscape:cx="33.5"
     inkscape:cy="33.5"
     inkscape:window-x="0"
     inkscape:window-y="0"
     inkscape:window-maximized="0"
     inkscape:current-layer="Layer_1" /><path
     d="m 52.181201,49.45849 0,-13.042007 c 0,-6.987584 -3.730423,-10.239177 -8.703579,-10.239177 -4.013268,0 -5.811667,2.208187 -6.813869,3.757149 l 0,-3.222641 -7.561069,0 c 0.100222,2.134693 0,22.746676 0,22.746676 l 7.561069,0 0,-12.703485 c 0,-0.678158 0.04899,-1.357429 0.249437,-1.842941 0.545644,-1.358542 1.78949,-2.764967 3.877413,-2.764967 2.737129,0 3.830645,2.085696 3.830645,5.142417 l 0,12.17009 7.559953,0 z M 21.137395,23.60721 c 2.635795,0 4.278295,-1.748288 4.278295,-3.931978 -0.049,-2.230459 -1.6425,-3.928637 -4.228184,-3.928637 -2.585686,0 -4.277183,1.697064 -4.277183,3.928637 0,2.18369 1.641388,3.931978 4.179189,3.931978 l 0.04788,0 z m 12.294809,43.515671 c -18.449451,0 -33.40678027,-14.957329 -33.40678027,-33.406779 0,-18.450565 14.95732927,-33.40677997 33.40678027,-33.40677997 18.44945,0 33.406779,14.95621497 33.406779,33.40677997 0,18.44945 -14.957329,33.406779 -33.406779,33.406779 z m -8.514276,-17.664391 0,-22.746676 -7.559953,0 0,22.746676 7.559953,0 z"
     style="clip-rule:evenodd;fill:#FFFFFF;fill-rule:evenodd"
     id="path3"
     inkscape:connector-curvature="0" /></svg>
